<?xml version="1.0" encoding="utf-8"?>
<!-- Generator: Adobe Illustrator 25.2.1, SVG Export Plug-In . SVG Version: 6.00 Build 0)  -->
<svg version="1.1" id="Capa_1" xmlns="http://www.w3.org/2000/svg" xmlns:xlink="http://www.w3.org/1999/xlink" x="0px" y="0px"
	 viewBox="0 0 201.6 201.6" style="enable-background:new 0 0 201.6 201.6;" xml:space="preserve">
<path d="M139.3,201.6c-1.5,0-2.9-0.1-4.4-0.4c0,0-0.1,0-0.1,0c-2.1-0.4-52.3-9.3-90-47c-30.4-30.4-40.6-69.4-43.7-85
	c-0.6-1.9-0.9-3.8-1-5.8c0-0.2,0-0.4,0-0.7c-0.1-6.1,2.3-11.9,6.6-16.2l12.8-12.8c0.8-0.8,1.8-1.2,2.8-1.2s2.1,0.4,2.8,1.2
	l41.5,41.5c1.6,1.6,1.6,4.1,0,5.7L53.9,93.6c-0.3,0.3-0.7,0.6-1,0.9c-6,5.3-7.1,14.6-2.7,21.7c4.3,6.7,9.1,12.8,14.4,18.1
	c6.2,6.2,13.6,11.9,22,16.8c6.8,4,15.6,2.7,21.4-3.1l0.1-0.1l12.8-12.8c1.6-1.6,4.1-1.6,5.7,0l41.5,41.5c1.6,1.6,1.6,4.1,0,5.7
	L155.3,195C151,199.3,145.3,201.6,139.3,201.6z M136,193.3c0.1,0,0.2,0,0.3,0.1c4.9,1,9.8-0.5,13.3-4l10-10l-35.8-35.8l-10.1,10.1
	c-8.3,8.4-21.1,10.3-31.1,4.4c-8.9-5.2-16.9-11.3-23.6-18c-5.7-5.7-10.9-12.2-15.5-19.5c-6.5-10.3-4.8-24,4.1-31.9
	c0.2-0.2,0.4-0.4,0.6-0.6l10-10L22.5,42.2l-10,10C9.6,55,8.1,58.8,8.2,62.8c0,0,0,0.1,0,0.1c0,1.4,0.3,2.7,0.7,4
	c0,0.1,0.1,0.3,0.1,0.4c2.8,14.7,12.5,52.1,41.5,81.1C85.3,183.3,132.6,192.6,136,193.3z M197.4,110.9c-2.2,0-4-1.8-4-4
	C193.4,52.4,149.1,8,94.5,8c-2.2,0-4-1.8-4-4s1.8-4,4-4c59,0,106.9,48,106.9,106.9C201.4,109.2,199.7,110.9,197.4,110.9z
	 M172.6,110.9c-2.2,0-4-1.8-4-4c0-41.2-33.5-74.8-74.8-74.8c-2.2,0-4-1.8-4-4s1.8-4,4-4c45.6,0,82.8,37.1,82.8,82.8
	C176.6,109.2,174.8,110.9,172.6,110.9z M147.9,110.9c-2.2,0-4-1.8-4-4c0-27.6-22.4-50-50-50c-2.2,0-4-1.8-4-4s1.8-4,4-4
	c32,0,58,26,58,58C151.9,109.2,150.1,110.9,147.9,110.9z"/>
</svg>
